<mxfile host="app.diagrams.net" modified="2023-08-28T10:31:33.591Z" agent="Mozilla/5.0 (X11; Linux x86_64) AppleWebKit/537.36 (KHTML, like Gecko) Chrome/114.0.0.0 Safari/537.36" version="21.6.9" etag="Y6Wk73NjygGpmMcfhDi2" type="github">
  <diagram name="Страница — 1" id="YhCNf7dvYYoCE74kNhiO">
    <mxGraphModel>
      <root>
        <mxCell id="0" />
        <mxCell id="1" parent="0" />
      </root>
    </mxGraphModel>
  </diagram>
</mxfile>
